<?xml version="1.0" encoding="UTF-8"?>
<svg id="_레이어_1" data-name="레이어_1" xmlns="http://www.w3.org/2000/svg" xmlns:xlink="http://www.w3.org/1999/xlink" viewBox="0 0 1400 2975">
  <defs>
    <style>
      .cls-1 {
        fill: #addae0;
      }

      .cls-2 {
        mask: url(#mask);
      }

      .cls-3 {
        fill: #e4e4f2;
      }

      .cls-4 {
        fill: url(#_무제_그라디언트_8);
      }

      .cls-5 {
        fill: #fbd7b7;
      }

      .cls-6 {
        fill: #f2ed63;
      }

      .cls-7 {
        font-family: AdobeMyungjoStd-Medium-KSCpc-EUC-H, 'Adobe Myungjo Std';
        font-size: 12px;
        font-weight: 500;
      }
    </style>
    <radialGradient id="_무제_그라디언트_8" data-name="무제 그라디언트 8" cx="710.95" cy="293.46" fx="710.95" fy="293.46" r="1070.48" gradientTransform="translate(-.15 662.08) rotate(-.28) scale(1 2.57) skewX(-.68)" gradientUnits="userSpaceOnUse">
      <stop offset="0" stop-color="#fff"/>
      <stop offset=".13" stop-color="#fbfbfb"/>
      <stop offset=".25" stop-color="#f0f0ef"/>
      <stop offset=".37" stop-color="#dfdddd"/>
      <stop offset=".49" stop-color="#c6c3c2"/>
      <stop offset=".6" stop-color="#a5a1a0"/>
      <stop offset=".72" stop-color="#7e7776"/>
      <stop offset=".83" stop-color="#504745"/>
      <stop offset=".93" stop-color="#231815"/>
    </radialGradient>
    <mask id="mask" x="-113.65" y="-78" width="1843.2" height="2979" maskUnits="userSpaceOnUse">
      <rect class="cls-4" x="11" y="-78" width="1406" height="2979"/>
    </mask>
  </defs>
  <g class="cls-2">
    <g>
      <path class="cls-5" d="M330.05,24.24c44.44,5.39,98.67,36.38,101.49,73.72,3.56,47.19-78.73,54.59-120.16,142.66-30.57,64.98-5.94,103.85-40.69,131.65-35.09,28.06-101.45,21.45-135.96-11.49-56.34-53.76-17.11-167.43,19.63-225.48,8.18-12.93,77.8-122.94,175.69-111.06Z"/>
      <path class="cls-5" d="M471.65,1768.39c19.34-29.7,60.29-57.42,87.81-46.39,34.78,13.94,11.31,75,59.44,135.18,35.51,44.4,71.73,40.47,79.35,74.87,7.7,34.73-20.17,79.58-55.62,92.61-57.87,21.27-124.95-46.28-153.38-92.65-6.33-10.33-60.21-98.19-17.6-163.62Z"/>
      <path class="cls-3" d="M553.4,2433.03c26.7,39.41,39.69,104.54,11.7,132.86-35.36,35.79-98.74-25.05-198.3,3.19-73.46,20.84-87.44,67.72-134,59.25-47-8.56-88.01-66.4-85.68-117.07,3.8-82.71,122.36-130.58,194.56-141.63,16.08-2.46,152.91-23.4,211.71,63.4Z"/>
      <text class="cls-7" transform="translate(106 13)"><tspan x="0" y="0">v</tspan></text>
      <path class="cls-1" d="M1177.35,1664.04c12.58,2.88,145.99,33.46,187.78-47.88,30.04-58.48-2.8-144.56-61.36-170.6-43.44-19.32-87.89.25-119.47,14.16-44.59,19.64-129,72.92-118.78,128.56,9.61,52.34,96.62,72.28,111.83,75.77Z"/>
      <path class="cls-1" d="M-24.32,1846.35c-10.2,7.91-118.34,91.81-81.84,175.66,26.24,60.28,113.66,89.36,170.9,60.53,42.46-21.39,55.45-68.18,64.68-101.44,13.03-46.95,25.24-146.02-24.29-173.34-46.59-25.7-117.12,29.02-129.45,38.58Z"/>
      <path class="cls-6" d="M-50.94,1285.91c-7.29,10.04-84.62,116.51-28.42,184.13,40.4,48.61,128.91,52,174.02,10.03,33.46-31.14,32.9-77.83,32.5-111-.57-46.84-15.88-141.58-68.94-153.51-49.91-11.23-100.34,58.22-109.16,70.36Z"/>
      <path class="cls-1" d="M673.91,2860.8c12.4.49,143.88,5.74,168.95-78.53,18.02-60.58-28.27-136.1-88.22-150.33-44.48-10.56-83,15.82-110.38,34.56-38.65,26.46-108.97,91.77-89.46,142.53,18.35,47.75,104.11,51.18,119.1,51.77Z"/>
      <path class="cls-6" d="M976.91,2584.8c12.4.49,143.88,5.74,168.95-78.53,18.02-60.58-28.27-136.1-88.22-150.33-44.48-10.56-83,15.82-110.38,34.56-38.65,26.46-108.97,91.77-89.46,142.53,18.35,47.75,104.11,51.18,119.1,51.77Z"/>
      <path class="cls-3" d="M509.59,1289.36c-1.29,8.17-8.24,52.34,18.25,78.71,35.17,35,107.95,17.44,149.44-17.11,28.31-23.58,62.93-72.45,46.77-111.79-19.63-47.79-105.88-61.33-159.71-29.66-26.11,15.36-49.11,44.01-54.76,79.85Z"/>
      <path class="cls-6" d="M892.3,950.2c-.65,4.1-4.14,26.28,9.16,39.52,17.65,17.57,54.2,8.75,75.03-8.59,14.21-11.84,31.6-36.37,23.48-56.13-9.86-24-53.16-30.79-80.18-14.89-13.11,7.71-24.66,22.1-27.49,40.09Z"/>
      <path class="cls-5" d="M1465.93,781.98c394.58,139.13,202.23-83.92,245.84-27.71,43.61,56.21,4.25,159.74-87.92,231.25-92.17,71.51-202.23,83.92-245.84,27.71-43.61-56.21-306.66-370.38,87.92-231.25Z"/>
      <path class="cls-3" d="M874.81,299.59c-34.39-19.89-102.75-3.91-119.04,40.78-10.29,28.24,1.5,64.39,24.25,83.77,36.05,30.71,78.97,1.69,113.53,34.17,22.44,21.09,11.1,39.66,34.17,58.42,31.41,25.54,90.87,22.36,112.43-5.51,18.96-24.52-4.08-51.76,13.23-69.44,23.84-24.36,75.22,19.59,141.08-2.2,10.88-3.6,52.99-19.2,57.32-47.4,5.45-35.52-51.78-73.15-92.59-88.18-9.73-3.59-80.14-28.34-151,3.31-46.14,20.61-63.83,52.34-89.28,44.09-23.09-7.48-17.91-36.66-44.09-51.8Z"/>
      <path class="cls-3" d="M1213.81,2018.59c-34.39-19.89-102.75-3.91-119.04,40.78-10.29,28.24,1.5,64.39,24.25,83.77,36.05,30.71,78.97,1.69,113.53,34.17,22.44,21.09,11.1,39.66,34.17,58.42,31.41,25.54,90.87,22.36,112.43-5.51,18.96-24.52-4.08-51.76,13.23-69.44,23.84-24.36,75.22,19.59,141.08-2.2,10.88-3.6,52.99-19.2,57.32-47.4,5.45-35.52-51.78-73.15-92.59-88.18-9.73-3.59-80.14-28.34-151,3.31-46.14,20.61-63.83,52.34-89.28,44.09-23.09-7.48-17.91-36.66-44.09-51.8Z"/>
      <path class="cls-1" d="M569.43,759.91c22.42.86,52.33-25.16,48.67-51.77-2.31-16.82-17.74-31.75-34.21-35.42-26.1-5.82-39.87,19.99-65.7,12.9-16.77-4.61-16.01-16.87-32.47-20.15-22.42-4.46-51.27,12.81-54.68,32.42-3,17.24,15.69,24.77,11.72,38.16-5.48,18.45-42.72,10.07-69.86,38.33-4.48,4.67-21.39,23.57-16.11,38.79,6.65,19.17,45.15,22.86,69.49,19.59,5.81-.78,47.49-7,74.52-41.5,17.6-22.46,18.06-42.97,32.94-45.57,13.5-2.36,18.61,13.58,35.68,14.23Z"/>
    </g>
  </g>
</svg>