<?xml version="1.0" encoding="UTF-8"?>
<svg id="_레이어_1" data-name="레이어_1" xmlns="http://www.w3.org/2000/svg" viewBox="0 0 126.97 38.19">
  <defs>
    <style>
      .cls-1 {
        fill: #ece45b;
      }

      .cls-2 {
        fill: #85c6e0;
      }

      .cls-3 {
        fill: #a1d08c;
      }

      .cls-4 {
        fill: #f5ec57;
      }

      .cls-5 {
        fill: #eca94b;
      }
    </style>
  </defs>
  <g>
    <path class="cls-3" d="M82.56,26.46c1.23.12,2.03.44,2.03,1.83,0,1.88-2.59,2.17-4.37,2.15-1.5-.02-2.38-1.04-2.5-2.36-.33-3.35-.33-7.03,0-10.36.12-1.3.86-2.34,2.36-2.34s2.18,1.04,2.31,2.34c.26,2.57.35,6.06.18,8.74Z"/>
    <path class="cls-2" d="M90.47,19.31c3.51,0,5.18,2.98,5.18,5.88-.04,2.94-2.1,5.55-5.23,5.55s-5.69-2.38-5.69-5.55c.02-3.44,2.27-5.88,5.74-5.88ZM90.28,26.37c.48-.7.6-1.66.62-2.54.02-.41-.58-.39-.6-.09-.07.86-.21,1.59-.63,2.43-.14.26.37.53.62.19Z"/>
    <path class="cls-5" d="M100.12,30.44c-.7,0-1.29-.09-1.76-.28-1.06-.41-1.59-1.02-1.85-2.06-.32-1.3-.21-3.26-.18-6.32.02-1.48.74-2.47,2.8-2.47s2.73.99,2.73,2.47v3.68c.03.55.67.51.69-.07v-3.73c0-1.3.81-2.34,2.24-2.34s2.24,1.04,2.24,2.34v5.69c.09,1.18.48,2.78-.81,3.08-.58.12-.99.18-1.39.18-1.92,0-1.96-1.3-2.11-1.9-.07-.25-.39-.14-.35.07.07.39.23,1.06.35,1.27-.72.25-1.69.41-2.59.41Z"/>
    <path class="cls-2" d="M117.18,21.9c-.28-.55-1-1.39-1.73-1.83.02-.58.07-1.85.12-2.34.14-1.3.95-2.34,2.41-2.34s2.31,1.04,2.43,2.34c.19,1.89.28,4.3.25,6.31-.07,4.28-1.89,6.52-6.48,6.54-3.03,0-6.11-1.3-6.11-5.81,0-3.58,2.27-4.91,4.47-4.91,1.76,0,3.26.78,4.1,2.33.09.18.18.25.35.21.19-.07.28-.25.18-.48ZM114.66,24.89c.28-.21-.07-.74-.32-.56-.76.53-1.44.79-2.31.95-.26.07-.21.69.21.63.85-.18,1.69-.48,2.41-1.02Z"/>
  </g>
  <g>
    <path class="cls-2" d="M14.64,23.77c-.05.86-.12,1.74-.19,2.61-.12,1.32-.86,2.36-2.33,2.36s-2.22-1.04-2.34-2.36c-.35-3.35-.33-6.92,0-10.25.19-1.71,1.29-2.25,2.64-2.45.83-.09,1.69-.16,2.52-.16,3.29-.04,6.75.55,6.75,5.11s-3.45,5.21-7.05,5.14ZM14.64,18.99c.74.39,1.5.53,2.34.44.41-.05.33-.65.05-.63-.86.05-1.48-.09-2.24-.42-.28-.12-.53.41-.16.62Z"/>
    <path class="cls-5" d="M22.87,27.27c-.33-2.08-.33-4.39,0-6.47.12-.81.86-1.48,2.36-1.48s2.17.67,2.31,1.48c.35,2.08.35,4.39,0,6.47-.14.83-.86,1.48-2.31,1.48s-2.24-.65-2.36-1.48ZM25.23,18.41c-1.2,0-2.31-.88-2.31-2.45,0-1.46,1.13-2.45,2.31-2.45,1.29,0,2.31,1.23,2.31,2.5s-.97,2.4-2.31,2.4Z"/>
    <path class="cls-3" d="M32.38,22.43c.69.99,1.94,1.69,3.29,1.73,1.62.04,2.55.76,2.57,2.36.02,1.62-.97,2.34-2.59,2.34-4.09.02-6.96-1.15-6.96-5.74.02-4.72,3.49-6.15,7.56-5.23,1.78.41,2.33,2.17,2.04,3.66-.21,1.18-.97,2.2-1.99,2.2-1.44,0-2.73-.62-3.54-1.74-.09-.12-.25-.09-.33.02-.09.05-.14.26-.05.41Z"/>
    <path class="cls-4" d="M44.22,26.57c-.14,1.32-.86,2.18-2.33,2.18s-2.27-.86-2.41-2.18c-.12-1.16-.18-2.52-.21-3.68v-3.15c0-1.27.85-2.11,2.11-2.11,1,0,2.03.28,2.4,1.07-.92,1.11-1.37,2.4-1.23,3.77.05.42.53.39.51.04-.14-1.8.85-3.68,1.99-4.37.51-.3,1.07-.51,1.66-.51.97,0,1.97.32,2.62,1.04.99,1.07,1.06,2.36,1.04,3.77-.02,1.32-.14,2.91-.42,4.14-.3,1.32-.97,2.18-2.5,2.18s-2.34-.86-2.5-2.18c-.04-.3-.07-.62-.09-.93,0-.44-.42-.49-.55-.14-.04.37-.05.72-.09,1.07Z"/>
    <path class="cls-3" d="M51.55,27.27c-.33-2.08-.33-4.39,0-6.47.12-.81.86-1.48,2.36-1.48s2.17.67,2.31,1.48c.35,2.08.35,4.39,0,6.47-.14.83-.86,1.48-2.31,1.48s-2.24-.65-2.36-1.48ZM53.91,18.41c-1.2,0-2.31-.88-2.31-2.45,0-1.46,1.13-2.45,2.31-2.45,1.29,0,2.31,1.23,2.31,2.5s-.97,2.4-2.31,2.4Z"/>
  </g>
  <path class="cls-1" d="M57.26,20.79c0-6.4,2.53-11.62,11.01-11.62,2.43,0,4.42.37,5.92,1.2,2.11,1.07,2.16,3.41,1.17,5.17-1.01,1.84-3.07,3.12-5.17,2.05-.45-.24-1.09-.43-1.92-.43-2.53,0-3.52,1.71-3.52,3.6s.99,3.65,3.52,3.65c.83,0,1.47-.19,1.92-.43,2.16-1.09,4.26.29,5.22,2.19.93,1.79.8,3.97-1.23,5.06-1.49.8-3.49,1.17-5.92,1.17-8.48,0-11.01-5.2-11.01-11.62Z"/>
</svg>